<svg width="96" height="96" viewBox="0 0 96 96" fill="none" xmlns="http://www.w3.org/2000/svg">
<g opacity="0.4" filter="url(#filter0_f_228_4006)">
<circle cx="48" cy="48" r="33" fill="#56B8FF"/>
</g>
<circle cx="48" cy="43" r="33" fill="#56B8FF"/>
<path d="M40.3311 51.5072C39.287 51.5053 38.2698 51.1821 37.4226 50.5831C36.5754 49.9841 35.9408 49.1393 35.6081 48.1677L35.5614 48.0172C35.412 47.5583 35.3343 47.0798 35.3307 46.5981V37.6727L32.0958 48.2738C31.8978 49.0281 32.0093 49.8286 32.4063 50.503C32.8033 51.1775 33.4541 51.672 34.2186 51.8803L54.8376 57.3012C55.095 57.3667 55.3524 57.3981 55.6057 57.3981C56.9338 57.3981 58.1473 56.5328 58.4873 55.2578L59.6887 51.5072H40.3311ZM43.9981 37.7618C45.4689 37.7618 46.665 36.5875 46.665 35.1436C46.665 33.6996 45.4689 32.5254 43.9981 32.5254C42.5273 32.5254 41.3312 33.6996 41.3312 35.1436C41.3312 36.5875 42.5273 37.7618 43.9981 37.7618Z" fill="white"/>
<path d="M60.6653 28.5996H40.6637C39.7799 28.6006 38.9326 28.9458 38.3076 29.5593C37.6827 30.1728 37.3311 31.0047 37.3301 31.8723V46.2723C37.3301 48.0763 38.8262 49.5451 40.6637 49.5451H60.6653C62.5028 49.5451 63.9989 48.0763 63.9989 46.2723V31.8723C63.9989 30.0684 62.5028 28.5996 60.6653 28.5996ZM40.6637 31.2178H60.6653C60.8421 31.2178 61.0117 31.2868 61.1368 31.4095C61.2618 31.5323 61.332 31.6987 61.332 31.8723V41.1656L57.1197 36.3403C56.897 36.0891 56.6223 35.8874 56.314 35.7486C56.0057 35.6097 55.6707 35.537 55.3315 35.5352C54.9912 35.5369 54.6554 35.6117 54.3476 35.7544C54.0398 35.8971 53.7676 36.1042 53.5501 36.3612L48.5977 42.1971L46.9842 40.6171C46.5454 40.187 45.9508 39.9454 45.3307 39.9454C44.7107 39.9454 44.116 40.187 43.6773 40.6171L39.997 44.2288V31.8723C39.997 31.6987 40.0672 31.5323 40.1922 31.4095C40.3173 31.2868 40.4869 31.2178 40.6637 31.2178Z" fill="white"/>
<defs>
<filter id="filter0_f_228_4006" x="0.875" y="0.875" width="94.25" height="94.25" filterUnits="userSpaceOnUse" color-interpolation-filters="sRGB">
<feFlood flood-opacity="0" result="BackgroundImageFix"/>
<feBlend mode="normal" in="SourceGraphic" in2="BackgroundImageFix" result="shape"/>
<feGaussianBlur stdDeviation="7.0625" result="effect1_foregroundBlur_228_4006"/>
</filter>
</defs>
</svg>